<svg width="36" height="36" viewBox="0 0 36 36" fill="none" xmlns="http://www.w3.org/2000/svg">
<path d="M25.582 18.3522H24.4077L23.9914 17.9508C25.4483 16.2561 26.3253 14.056 26.3253 11.6627C26.3253 6.3259 21.9994 2 16.6627 2C11.3259 2 7 6.3259 7 11.6627C7 16.9994 11.3259 21.3253 16.6627 21.3253C19.056 21.3253 21.2561 20.4483 22.9508 18.9914L23.3522 19.4077V20.582L30.785 28L33 25.785L25.582 18.3522ZM16.6627 18.3522C12.9611 18.3522 9.97313 15.3642 9.97313 11.6627C9.97313 7.96112 12.9611 4.97313 16.6627 4.97313C20.3642 4.97313 23.3522 7.96112 23.3522 11.6627C23.3522 15.3642 20.3642 18.3522 16.6627 18.3522Z" fill="#FFFFFF"/>
<path d="M16 28.8H10.8V34H8.2V28.8H3V26.2H8.2V21H10.8V26.2H16V28.8Z" fill="#FFFFFF"/>
</svg>
